<svg id="Capa_1" enable-background="new 0 0 512 512" height="512" viewBox="0 0 512 512" width="512" xmlns="http://www.w3.org/2000/svg" xmlns:xlink="http://www.w3.org/1999/xlink"><linearGradient id="SVGID_1_" gradientUnits="userSpaceOnUse" x1="48.727" x2="411.029" y1="492.626" y2="130.323"><stop offset=".0485" stop-color="#d2deff"/><stop offset=".9993" stop-color="#dcfdee"/></linearGradient><g><g><path d="m284.869 10.86c44.688 21.743 56.509 75.265 76.831 116.526 26.145 53.086 54.806 50.809 102.433 72.222 43.248 19.444 54.327 75.718 44.578 119.17-36.597 163.107-159.483-50.838-211.564 82.827-17.53 44.99-35.756 69.68-82.89 87.271-82.98 30.97-184.907 33.66-212.635-68.21-16.465-60.49 96.877-90.802 141.597-99.762 38.841-7.782 174.127-33.16 153.995-84.482-9.119-23.247-120.046-1.624-150.921-15.262-33.76-14.913-33.609-47.971-7.202-70.535 11.369-9.714 23.952-18.657 31.755-31.414 8.675-14.182 10.844-31.353 12.682-47.876 8.857-79.589 79.951-70.882 101.341-60.475z" fill="url(#SVGID_1_)"/></g><g><g><g><path d="m442.652 145.355c12.844-14.502 12.332-36.683-1.549-50.565-13.882-13.882-36.063-14.394-50.565-1.55-20.486-11.734-44.218-18.444-69.518-18.444-22.918 0-44.549 5.505-63.647 15.263-9.145-18.838-28.455-31.827-50.802-31.827-31.173 0-56.443 25.27-56.443 56.443 0 24.995 16.254 46.182 38.764 53.602-5.141 14.578-7.947 30.258-7.947 46.595 0 25.272 6.696 48.979 18.405 69.449l-17.096 17.096c-4.102 4.102-4.102 10.752 0 14.853l3.937 3.937-144.776 144.778c-4.102 4.102-4.102 10.752 0 14.853l14.853 14.853c4.102 4.102 10.752 4.102 14.853 0l144.775-144.776 3.724 3.724c4.102 4.102 10.752 4.102 14.853 0l17.096-17.096c20.47 11.71 44.177 18.405 69.449 18.405 77.362 0 140.076-62.714 140.076-140.076.002-25.299-6.708-49.031-18.442-69.517z" fill="#2626bc" opacity=".1"/><g><g><path d="m56.268 470.691-14.853-14.853c-4.102-4.102-4.102-10.752 0-14.853l258.342-258.342 29.707 29.707-258.342 258.341c-4.102 4.102-10.752 4.102-14.854 0z" fill="#ff5ba8"/><path d="m74.638 407.761-33.224 33.224c-4.102 4.102-4.102 10.752 0 14.853l14.853 14.853c4.102 4.102 10.752 4.102 14.853 0l33.224-33.224c-9.901-9.901-19.803-19.803-29.706-29.706z" fill="#ffc4df"/><path d="m275.26 266.55-83.36 83.37-29.71-29.71 83.44-83.45c9.87 9.93 19.75 19.87 29.63 29.79z" fill="#fe2c8f"/></g><path d="m219.621 329.64-37.368-37.368c-4.102-4.102-4.102-10.752 0-14.853l206.629-206.629c14.421-14.421 37.801-14.421 52.221 0 14.421 14.421 14.421 37.801 0 52.221l-206.628 206.629c-4.102 4.102-10.752 4.102-14.854 0z" fill="#8399fe"/><g><ellipse cx="321.02" cy="190.873" fill="#ffa8cf" rx="140.076" ry="140.076" transform="matrix(.707 -.707 .707 .707 -40.943 282.901)"/><g><path d="m263.01 114.68c0 31.17-25.27 56.44-56.44 56.44-8.36 0-16.29-1.82-23.43-5.09 6.94-38.82 29.89-72.11 61.78-92.77 11.13 10.31 18.09 25.05 18.09 41.42z" fill="#ff7eb8"/></g><ellipse cx="321.02" cy="190.873" fill="#fff" rx="108.484" ry="108.484" transform="matrix(.707 -.707 .707 .707 -40.943 282.901)"/><g><path d="m263.01 114.68c0 28.5-21.13 52.07-48.57 55.89 5.54-29.25 22.81-54.34 46.74-70.2 1.19 4.57 1.83 9.37 1.83 14.31z" fill="#ffdbed"/></g><path d="m378.84 154.488-21.221-21.221c-3.905-3.905-10.237-3.905-14.142 0l-22.456 22.456-22.456-22.456c-3.905-3.905-10.237-3.905-14.142 0l-21.221 21.221c-3.905 3.905-3.905 10.237 0 14.142l22.456 22.456-22.456 22.456c-3.905 3.905-3.905 10.237 0 14.142l21.221 21.221c3.905 3.905 10.237 3.905 14.142 0l22.456-22.456 22.456 22.456c3.905 3.905 10.237 3.905 14.142 0l21.221-21.221c3.905-3.905 3.905-10.237 0-14.142l-22.456-22.456 22.456-22.456c3.905-3.905 3.905-10.237 0-14.142z" fill="#ff5ba8"/></g></g></g><g><g><g><circle cx="206.571" cy="90.676" fill="#dcfdee" r="56.443"/></g><g><path d="m245.47 131.583c-10.13 9.62-23.82 15.54-38.9 15.54s-28.76-5.91-38.89-15.53c.56-1.05 1.42-1.93 2.47-2.53l28.41-16.12v-9.68h16.02v9.68l28.41 16.12c1.059.6 1.91 1.48 2.48 2.52z" fill="#01eca5"/></g><g><g><path d="m186.732 75.254.706 14.63c.493 10.208 8.913 18.232 19.133 18.232 10.22 0 18.64-8.024 19.133-18.232l.706-14.63c.547-11.332-8.494-20.819-19.839-20.819-11.345 0-20.386 9.487-19.839 20.819z" fill="#02ffb3"/></g></g><path d="m448.632 121.908c5.364-7.192 8.288-15.943 8.288-25.008 0-11.196-4.363-21.725-12.285-29.646-14.802-14.804-38.167-16.285-54.657-3.993-20.522-11.133-44.015-17.461-68.958-17.461-21.579 0-42.259 4.601-61.551 13.671-10.707-18.081-30.404-30.237-52.898-30.237-28.048 0-52.518 18.947-59.504 46.075-.688 2.674.921 5.4 3.595 6.089 2.67.688 5.4-.92 6.089-3.595 5.849-22.709 26.336-38.569 49.82-38.569 28.365 0 51.442 23.077 51.442 51.443 0 28.365-23.077 51.442-51.442 51.442-23.222 0-43.647-15.647-49.673-38.051-.716-2.667-3.455-4.246-6.127-3.53-2.666.717-4.247 3.46-3.529 6.127 5.011 18.637 18.369 33.351 35.382 40.573-4.431 14.087-6.683 28.74-6.683 43.633 0 24.777 6.248 48.12 17.244 68.544l-14.471 14.47c-6.042 6.043-6.042 15.877.001 21.921l.404.404-141.249 141.239c-6.036 6.052-6.034 15.888.006 21.928l14.858 14.849c3.021 3.021 6.991 4.532 10.96 4.532 3.97 0 7.939-1.511 10.961-4.532l141.245-141.235.184.184c2.928 2.928 6.82 4.54 10.961 4.54s8.033-1.612 10.96-4.54l14.47-14.47c20.425 10.996 43.767 17.244 68.544 17.244 33.122 0 64.319-10.881 90.222-31.466 2.161-1.718 2.521-4.864.803-7.025-1.719-2.163-4.863-2.519-7.025-.804-24.114 19.165-53.16 29.295-83.999 29.295-74.482 0-135.079-60.597-135.079-135.08 0-13.821 2.08-27.417 6.177-40.489 4.66 1.131 9.502 1.737 14.454 1.737 33.88 0 61.442-27.563 61.442-61.442 0-7.831-1.489-15.317-4.171-22.211 17.919-8.4 37.129-12.664 57.177-12.664 74.483 0 135.08 60.592 135.08 135.07 0 31.51-11.085 62.18-31.212 86.361-1.767 2.123-1.479 5.275.645 7.042.934.778 2.067 1.157 3.195 1.157 1.434 0 2.857-.613 3.846-1.801 21.62-25.974 33.526-58.917 33.526-92.759 0-24.945-6.331-48.439-17.468-68.962zm-381.047 345.246c-2.145 2.145-5.635 2.145-7.781-.001l-14.858-14.849c-2.145-2.145-2.143-5.641 0-7.789l141.244-141.235 22.64 22.64zm175.97-153.67-12.622 12.621c-1.038 1.038-2.419 1.61-3.889 1.61s-2.851-.572-3.89-1.611l-37.369-37.37c-2.145-2.145-2.145-5.635-.001-7.779l12.621-12.621c11.525 18.177 26.974 33.626 45.15 45.15zm156.008-244.532c12.181-6.731 27.774-4.854 38.001 5.374 6.033 6.032 9.355 14.049 9.355 22.574 0 5.448-1.388 10.745-3.978 15.426-11.215-17.347-26.029-32.16-43.378-43.374z" fill="#2626bc"/></g></g></g><g><path d="m351.163 394.392c-1.279 0-2.56-.488-3.535-1.464l-10.5-10.5c-1.953-1.953-1.953-5.119 0-7.071l10.5-10.5c1.951-1.952 5.119-1.952 7.07 0l10.5 10.5c1.953 1.953 1.953 5.119 0 7.071l-10.5 10.5c-.975.975-2.256 1.464-3.535 1.464zm-3.429-15.5 3.429 3.429 3.429-3.429-3.429-3.429z" fill="#01eca5"/></g><g><path d="m132.077 293.5c-1.279 0-2.56-.488-3.535-1.464l-10.5-10.5c-1.953-1.953-1.953-5.119 0-7.071l10.5-10.5c1.951-1.952 5.119-1.952 7.07 0l10.5 10.5c1.953 1.953 1.953 5.119 0 7.071l-10.5 10.5c-.975.976-2.256 1.464-3.535 1.464zm-3.429-15.5 3.429 3.429 3.429-3.429-3.429-3.429z" fill="#ff7eb8"/></g><g><path d="m144.577 481.228c-1.279 0-2.56-.488-3.535-1.464l-10.5-10.5c-1.953-1.953-1.953-5.119 0-7.071l10.5-10.5c1.951-1.952 5.119-1.952 7.07 0l10.5 10.5c1.953 1.953 1.953 5.119 0 7.071l-10.5 10.5c-.975.975-2.256 1.464-3.535 1.464zm-3.429-15.5 3.429 3.429 3.429-3.429-3.429-3.429z" fill="#6583fe"/></g><g><path d="m119.577 140.338c-1.279 0-2.56-.488-3.535-1.464-1.953-1.953-1.953-5.119 0-7.071l10-10c1.951-1.952 5.119-1.952 7.07 0 1.953 1.953 1.953 5.119 0 7.071l-10 10c-.975.976-2.256 1.464-3.535 1.464z" fill="#01eca5"/></g><g><path d="m415.651 388.892c-1.279 0-2.56-.488-3.535-1.464-1.953-1.953-1.953-5.119 0-7.071l10-10c1.951-1.952 5.119-1.952 7.07 0 1.953 1.953 1.953 5.119 0 7.071l-10 10c-.975.975-2.255 1.464-3.535 1.464z" fill="#6583fe"/></g></g></g></svg>