<svg id="Layer_1" enable-background="new 0 0 512 512" height="512" viewBox="0 0 512 512" width="512" xmlns="http://www.w3.org/2000/svg"><path fill="#686868" clip-rule="evenodd" d="m185.856 55.916c35.946-35.939 84.3-55.883 135.104-55.883 50.823 0 99.195 19.93 135.154 55.883 74.516 74.502 74.511 195.764.001 270.268-74.52 74.515-195.743 74.517-270.26 0-74.532-74.532-74.541-195.741.001-270.268zm-136.691 447.686 134.22-134.206c-7.527-5.817-14.768-12.173-21.669-19.074-6.903-6.903-13.263-14.147-19.081-21.676l-134.213 134.195c-5.42 5.419-8.422 12.714-8.422 20.378 0 7.663 2.998 14.951 8.412 20.373 11.148 11.166 29.596 11.166 40.753.01zm176.214-408.156c-52.726 52.716-52.717 138.493.002 191.211 52.707 52.707 138.501 52.703 191.208 0 52.697-52.694 52.703-138.518.001-191.211-25.46-25.455-59.639-39.522-95.628-39.522-35.974 0-70.136 14.079-95.583 39.522z" fill-rule="evenodd"/></svg>